<svg xmlns="http://www.w3.org/2000/svg" viewBox="0 0 374.5 140"><defs><style>.cls-1,.cls-4{fill:#042538;}.cls-1,.cls-3,.cls-6{stroke:#fff;}.cls-1,.cls-3{stroke-miterlimit:10;}.cls-2{fill:#fff;}.cls-3,.cls-5{fill:#ffc501;}.cls-6{fill:none;stroke-linecap:round;stroke-linejoin:round;stroke-width:2px;}</style></defs><g id="Font"><g id="LeagueLink"><g id="League"><path id="L" class="cls-1" d="M158.67,197.45c0,1.3,1.29,2.23,3.39,2.23h18.75l.81,10c-8.32.86-18.1.86-27.24.86-8.08,0-13.25-4-13.25-9.71V167.62h17.54Z" transform="translate(-13 -130)"/><path id="E" class="cls-1" d="M216.79,209.89c-8.09.81-19.4.81-29,.81-7.68,0-13.09-4-13.09-9.72V177.21c0-5.76,5.41-9.72,13.09-9.72,9.62,0,20.93,0,29,.81l-.81,9.47H195.53c-2,0-3.31.93-3.31,2.23v4.14h20.85v8.92H192.22v5.13c0,1.3,1.29,2.23,3.31,2.23H216Z" transform="translate(-13 -130)"/><path id="A" class="cls-1" d="M227.78,201.1,225,210.33H207.09l14.47-39.25c.73-2.1,3.07-3.46,5.9-3.46h15.92c2.83,0,5.18,1.36,5.9,3.46l14.47,39.25H245.89l-2.83-9.23Zm9.7-18.57a35,35,0,0,1-1-4.89h-2.18a49.14,49.14,0,0,1-1,4.89l-2.75,9.16h9.62Z" transform="translate(-13 -130)"/><path id="G" class="cls-1" d="M302.15,210.33H289.22l-1.54-4.4c-2.58,2.42-7.92,5.26-15.44,5.26-12.85,0-18.51-6.06-18.51-22.22,0-16.4,7-22.22,26.27-22.22,8.89,0,13.91.5,19.81,1.79l-1.3,9.66c-6.14-.06-10.91-.12-18.43-.12-6.22,0-7.92,2.1-7.92,10.89s1.62,10.77,7.12,10.77a52.26,52.26,0,0,0,6.06-.37V185.75h16.81Z" transform="translate(-13 -130)"/><path id="U" class="cls-1" d="M347.09,192.69c0,13.61-6.3,18.5-23.76,18.5-18.83,0-25.62-4.89-25.62-18.5V167.62h17.54v25.07c0,6.87,1.53,8.54,7.19,8.54s7.12-1.67,7.12-8.54V167.62h17.53Z" transform="translate(-13 -130)"/><path id="E-2" data-name="E" class="cls-1" d="M385.57,209.77c-8.08.8-19.4.8-29,.8-7.67,0-13.09-4-13.09-9.71V177.09c0-5.76,5.42-9.72,13.09-9.72,9.62,0,20.94,0,29,.8l-.81,9.47H364.31c-2,0-3.31.93-3.31,2.23V184h20.85v8.91H361v5.14c0,1.3,1.29,2.23,3.31,2.23h20.45Z" transform="translate(-13 -130)"/></g><g id="LinkTag"><g id="Tag"><rect class="cls-2" x="128.13" y="79.4" width="244.44" height="25.92" rx="7.5"/><path class="cls-3" d="M378.43,236.75H148.27a8.57,8.57,0,0,1-8.57-8.57V216.54a8.57,8.57,0,0,1,8.57-8.57H378.43a8.57,8.57,0,0,1,8.57,8.57v11.64A8.57,8.57,0,0,1,378.43,236.75ZM148.27,210.83a5.71,5.71,0,0,0-5.71,5.71v11.64a5.71,5.71,0,0,0,5.71,5.71H378.43a5.71,5.71,0,0,0,5.71-5.71V216.54a5.71,5.71,0,0,0-5.71-5.71Z" transform="translate(-13 -130)"/></g><g id="Link"><path id="L-2" data-name="L" class="cls-4" d="M175,231.62c-4.37,0-7.2-1.52-7.2-3.87V213.1h6.38v14.44c0,.63.33.75,1.29.75h12.67l.23,3.13-1.75.05C182.6,231.6,178.49,231.62,175,231.62Z" transform="translate(-13 -130)"/><rect id="I" class="cls-4" x="218.02" y="83.1" width="6.33" height="18.49"/><path id="N" class="cls-4" d="M300.09,231.59h-3a3.81,3.81,0,0,1-3-1.1L283.9,219.08v12.51h-6.33V214.77c0-1,1.18-1.67,2.93-1.67h2.9a3.84,3.84,0,0,1,3,1.1l10.31,11.51V213.1H303v16.83C303,230.92,301.84,231.59,300.09,231.59Z" transform="translate(-13 -130)"/><path id="K" class="cls-4" d="M358.9,231.59h-7.5l-10-8h-1.2a6.58,6.58,0,0,1,.06.87v7.09h-6.33V213.1h6.33v6.33a7,7,0,0,1-.06.92h1.26l9.38-7.25h7.5l-11.08,8.59-.41.31a6.31,6.31,0,0,1,.54.39Z" transform="translate(-13 -130)"/></g></g></g></g><g id="Shield"><g id="CoreLogo"><path id="SheildOutlineOuter" class="cls-4" d="M60.27,262.51a135,135,0,0,0,13,7.49,135.79,135.79,0,0,0,13-7.49c1.34-.86,2.74-1.8,4.18-2.8,14.28-9.87,32.78-26.25,36.16-46.47,2.18-13,6.93-58.48,6.93-58.48S116.9,154.18,73.25,130C29.61,154.18,13,154.76,13,154.76s4.75,45.47,6.92,58.48c3.39,20.22,21.89,36.6,36.16,46.47C57.53,260.71,58.93,261.65,60.27,262.51Z" transform="translate(-13 -130)"/><path id="SheildOutlineInner" class="cls-2" d="M61.11,258.47a125.33,125.33,0,0,0,12.14,7,124.65,124.65,0,0,0,12.15-7c1.25-.81,2.56-1.68,3.91-2.62,13.35-9.23,30.66-24.55,33.82-43.47,2-12.17,5.51-54.7,5.51-54.7s-14.56-.53-55.39-23.15c-40.82,22.62-55.38,23.15-55.38,23.15s3.47,42.53,5.5,54.7c3.17,18.92,20.47,34.24,33.82,43.47Q59.22,257.26,61.11,258.47Z" transform="translate(-13 -130)"/><path id="SheildOutlineInner-2" data-name="SheildOutlineInner" class="cls-4" d="M62.4,252.25a111.68,111.68,0,0,0,10.85,6.26,112.42,112.42,0,0,0,10.86-6.26c1.12-.72,2.29-1.5,3.5-2.34C99.54,241.66,115,228,117.83,211.06c1.82-10.87,4.58-48.88,4.58-48.88s-12.67-.48-49.16-20.69C36.77,161.7,24.1,162.18,24.1,162.18s2.76,38,4.58,48.88C31.5,228,47,241.66,58.9,249.91,60.11,250.75,61.28,251.53,62.4,252.25Z" transform="translate(-13 -130)"/><g id="Social"><g id="Circle"><circle id="Circle-2" data-name="Circle" class="cls-5" cx="51.67" cy="29.61" r="3.77"/><path id="CircleOutline" class="cls-2" d="M64.67,163.56a3.95,3.95,0,1,1,4-3.95A4,4,0,0,1,64.67,163.56Zm0-7.54a3.59,3.59,0,1,0,3.59,3.59A3.59,3.59,0,0,0,64.67,156Z" transform="translate(-13 -130)"/></g><g id="Circle-3" data-name="Circle"><circle id="Circle-4" data-name="Circle" class="cls-5" cx="68.92" cy="29.61" r="3.77"/><path id="CircleOutline-2" data-name="CircleOutline" class="cls-2" d="M81.92,163.56a3.95,3.95,0,1,1,4-3.95A4,4,0,0,1,81.92,163.56Zm0-7.54a3.59,3.59,0,1,0,3.59,3.59A3.59,3.59,0,0,0,81.92,156Z" transform="translate(-13 -130)"/></g><g id="Circle-5" data-name="Circle"><circle id="Circle-6" data-name="Circle" class="cls-4" cx="60.25" cy="26.25" r="6.72"/><circle id="Circle-7" data-name="Circle" class="cls-5" cx="60.25" cy="26.25" r="6.07"/><path id="CircleOutline-3" data-name="CircleOutline" class="cls-2" d="M73.25,162.61a6.36,6.36,0,1,1,6.36-6.36A6.37,6.37,0,0,1,73.25,162.61Zm0-12.14A5.78,5.78,0,1,0,79,156.25,5.79,5.79,0,0,0,73.25,150.47Z" transform="translate(-13 -130)"/></g></g><g id="Cup"><path id="Cup-2" data-name="Cup" class="cls-5" d="M103.72,164.64H94.28a3.72,3.72,0,0,0-3.72,3.72v1.06a1.06,1.06,0,0,0,1.06,1.07H94a1.07,1.07,0,0,0,1.11-1,1.05,1.05,0,0,1,1.06-1.09h5.45a1.06,1.06,0,0,1,1.06,1.06v13.4a28.12,28.12,0,0,1-3.55,13.91A22.92,22.92,0,0,1,94,202.94a36.5,36.5,0,0,0,2.73-12.19l.62-13.84a3.71,3.71,0,0,0-3.7-3.87H52.85a3.7,3.7,0,0,0-3.7,3.87l.62,13.84a36.71,36.71,0,0,0,2.72,12.19,22.88,22.88,0,0,1-5.08-6.21,28,28,0,0,1-3.56-13.91v-13.4a1.07,1.07,0,0,1,1.07-1.06h5.4a1.07,1.07,0,0,1,1.11,1,1.06,1.06,0,0,0,1.06,1.09h2.39A1.07,1.07,0,0,0,56,169.42v-1.06a3.73,3.73,0,0,0-3.72-3.72H42.79a3.72,3.72,0,0,0-3.72,3.72V182.8A33.13,33.13,0,0,0,43,198.62a25.71,25.71,0,0,0,13.21,12c4.21,7.17,10.19,13.09,17,13.09s12.85-5.92,17.06-13.09a25.69,25.69,0,0,0,13.2-12,33,33,0,0,0,3.91-15.82l0-14.44A3.73,3.73,0,0,0,103.72,164.64Z" transform="translate(-13 -130)"/><path id="CupOutline" class="cls-2" d="M73.25,224.12c-8.28,0-14.39-8.18-17.33-13.16a25.93,25.93,0,0,1-13.28-12.15,33.66,33.66,0,0,1-4-16V168.36a4.13,4.13,0,0,1,4.12-4.12h9.44a4.13,4.13,0,0,1,4.12,4.12v1.06a1.47,1.47,0,0,1-1.47,1.47H52.49a1.44,1.44,0,0,1-1.05-.45,1.46,1.46,0,0,1-.41-1.05.6.6,0,0,0-.17-.41.76.76,0,0,0-.54-.22h-5.4a.67.67,0,0,0-.67.66v13.4a27.61,27.61,0,0,0,3.51,13.71,23,23,0,0,0,3.8,5,35,35,0,0,1-2.19-10.8l-.62-13.82a4.1,4.1,0,0,1,4.1-4.29H93.66a4.12,4.12,0,0,1,4.1,4.29l-.63,13.84A34.91,34.91,0,0,1,95,201.55a23.33,23.33,0,0,0,3.8-5,27.7,27.7,0,0,0,3.5-13.71v-13.4a.66.66,0,0,0-.66-.66H96.14a.67.67,0,0,0-.48.2.66.66,0,0,0-.18.48,1.33,1.33,0,0,1-.4,1,1.54,1.54,0,0,1-1.11.47H91.62a1.47,1.47,0,0,1-1.46-1.47v-1.06a4.13,4.13,0,0,1,4.12-4.12h9.44a4.13,4.13,0,0,1,4.12,4.12l0,14.44a33.46,33.46,0,0,1-4,16A25.9,25.9,0,0,1,90.58,211C87.64,215.94,81.54,224.12,73.25,224.12ZM42.79,165a3.32,3.32,0,0,0-3.32,3.32V182.8a32.72,32.72,0,0,0,3.86,15.63,25.12,25.12,0,0,0,13,11.84l.13,0,.07.12c2.83,4.81,8.76,12.89,16.71,12.89S87.14,215.25,90,210.44l.07-.12.12,0a25.09,25.09,0,0,0,13-11.84A32.84,32.84,0,0,0,107,182.8V168.36a3.32,3.32,0,0,0-3.32-3.32H94.28A3.32,3.32,0,0,0,91,168.36v1.06a.67.67,0,0,0,.66.67H94a.76.76,0,0,0,.54-.23.55.55,0,0,0,.17-.4,1.45,1.45,0,0,1,1.46-1.5h5.45a1.46,1.46,0,0,1,1.46,1.46v13.4a28.5,28.5,0,0,1-3.61,14.11,23.27,23.27,0,0,1-5.17,6.32l-1.19,1,.56-1.45a36.41,36.41,0,0,0,2.7-12.05L97,176.9a3.3,3.3,0,0,0-3.3-3.46H52.85a3.3,3.3,0,0,0-3.3,3.46l.62,13.83a36.15,36.15,0,0,0,2.7,12.07l.55,1.45-1.18-1a23.3,23.3,0,0,1-5.18-6.32,28.53,28.53,0,0,1-3.61-14.11v-13.4A1.47,1.47,0,0,1,44.92,168h5.4a1.57,1.57,0,0,1,1.12.47,1.34,1.34,0,0,1,.39,1,.63.63,0,0,0,.19.48.63.63,0,0,0,.47.2h2.39a.67.67,0,0,0,.67-.67v-1.06A3.32,3.32,0,0,0,52.23,165Z" transform="translate(-13 -130)"/></g><g id="Base"><path id="BottomBase" class="cls-5" d="M87.14,251.28H59.36A1.67,1.67,0,0,0,57.7,253v2c1.2.82,2.38,1.61,3.49,2.33a126,126,0,0,0,12.06,7,126,126,0,0,0,12.06-7c1.12-.72,2.3-1.51,3.49-2.33v-2A1.66,1.66,0,0,0,87.14,251.28Z" transform="translate(-13 -130)"/><path id="MidBase" class="cls-5" d="M82.53,243.13H64a2.29,2.29,0,0,0-2.28,2.28v5.08H84.82v-5.08A2.29,2.29,0,0,0,82.53,243.13Z" transform="translate(-13 -130)"/><path id="TopBase" class="cls-5" d="M74.41,233.21a.68.68,0,0,1,.63-.74c1.59-.14,2-.73,2-2.63v-1a1,1,0,0,0-1-1H70.37a1,1,0,0,0-1,1v1c0,1.9.46,2.49,2.06,2.63a.68.68,0,0,1,.63.74,14.69,14.69,0,0,1-4.47,9.12H78.88A14.59,14.59,0,0,1,74.41,233.21Z" transform="translate(-13 -130)"/><path id="BaseOutline" class="cls-2" d="M87.14,250.49H85.61v-5.08a3.09,3.09,0,0,0-3.08-3.08H80a14.11,14.11,0,0,1-4.8-9.08c2.22-.23,2.68-1.53,2.68-3.41v-1a1.75,1.75,0,0,0-1.75-1.75H70.37a1.75,1.75,0,0,0-1.75,1.75v1c0,1.9.46,3.21,2.67,3.38a14,14,0,0,1-4.8,9.11H64a3.09,3.09,0,0,0-3.08,3.08v5.08H59.36A2.46,2.46,0,0,0,56.9,253v2.24l.4.28.4.27V253a1.67,1.67,0,0,1,1.66-1.67H87.14A1.66,1.66,0,0,1,88.8,253v2.79l.4-.27.4-.28V253A2.46,2.46,0,0,0,87.14,250.49Zm-15-17.28a.68.68,0,0,0-.63-.74c-1.6-.14-2.06-.73-2.06-2.63v-1a1,1,0,0,1,1-1h5.77a1,1,0,0,1,1,1v1c0,1.9-.46,2.49-2,2.63a.68.68,0,0,0-.63.74,14.59,14.59,0,0,0,4.47,9.12H67.63A14.69,14.69,0,0,0,72.1,233.21Zm12.72,17.28H61.69v-5.08A2.29,2.29,0,0,1,64,243.13H82.53a2.29,2.29,0,0,1,2.29,2.28Z" transform="translate(-13 -130)"/></g><path id="RHighlight" class="cls-6" d="M91.58,179.09s2.57,8.33-.89,20.91" transform="translate(-13 -130)"/><path id="LHighlight" class="cls-6" d="M54.93,179.09s-2.57,8.33.88,20.91" transform="translate(-13 -130)"/></g></g></svg>