<svg id="Search" xmlns="http://www.w3.org/2000/svg" viewBox="0 0 60 60"><defs></defs><path class="cls-1" d="M60.92,54.16,49.38,43.27a3.8,3.8,0,0,0-3.6-.88l-3.25-3.1a21.68,21.68,0,0,0,6.11-15C48.64,12,38.18,2,25.32,2S2,12,2,24.28,12.46,46.55,25.32,46.55a24,24,0,0,0,12.35-3.39l3.65,3.48a3.43,3.43,0,0,0,.93,3.44L53.79,61A3.83,3.83,0,0,0,59,61l1.91-1.83A3.41,3.41,0,0,0,60.92,54.16ZM8.3,24.28c0-9,7.64-16.26,17-16.26s17,7.29,17,16.26-7.64,16.25-17,16.25S8.3,33.24,8.3,24.28Z" transform="translate(-2 -2)"/></svg>