<svg id="Search" xmlns="http://www.w3.org/2000/svg" viewBox="0 0 60 60"><defs></defs><path class="cls-1" d="M36.48,20.25a1.42,1.42,0,0,0,1-1.76A13.82,13.82,0,0,0,24.15,8.76a14.51,14.51,0,0,0-6.44,1.51,1.41,1.41,0,0,0-.63,1.93,1.55,1.55,0,0,0,2,.61,11.12,11.12,0,0,1,5-1.19,10.85,10.85,0,0,1,10.49,7.63,1.47,1.47,0,0,0,1.44,1.05A1.83,1.83,0,0,0,36.48,20.25Z" transform="translate(-2 -2)"/><path class="cls-1" d="M61,54.55,47,41.21a3.62,3.62,0,0,0-3.42-.84l-3.08-2.95a20.56,20.56,0,0,0,5.8-14.26C46.31,11.49,36.37,2,24.15,2S2,11.49,2,23.16s9.94,21.16,22.15,21.16A22.8,22.8,0,0,0,35.89,41.1l3.47,3.31a3.24,3.24,0,0,0,.87,3.27L54.2,61a3.62,3.62,0,0,0,5,0L61,59.29A3.26,3.26,0,0,0,61,54.55ZM8,23.16C8,14.65,15.24,7.72,24.15,7.72s16.17,6.93,16.17,15.44S33.07,38.6,24.15,38.6,8,31.68,8,23.16Z" transform="translate(-2 -2)"/></svg>