<svg id="Schedule" xmlns="http://www.w3.org/2000/svg" viewBox="0 0 60 60"><path d="M57,7V7H52v4a2,2,0,0,1-2,2H48a2,2,0,0,1-2-2V7H18v4a2,2,0,0,1-2,2H14a2,2,0,0,1-2-2V7H7V7C4.25,7,2,9.77,2,13.13V55.89C2,59.25,4.25,62,7,62H57c2.75,0,5-2.75,5-6.11V13.13C62,9.77,59.75,7,57,7Zm0,46.43a2.26,2.26,0,0,1-2,2.44H9a2.26,2.26,0,0,1-2-2.44V19.68a2.26,2.26,0,0,1,2-2.44H55a2.26,2.26,0,0,1,2,2.44Z" transform="translate(-2 -2)"/><path d="M14,12h2a1,1,0,0,0,1-1V3a1,1,0,0,0-1-1H14a1,1,0,0,0-1,1v8A1,1,0,0,0,14,12Z" transform="translate(-2 -2)"/><path d="M48,12h2a1,1,0,0,0,1-1V3a1,1,0,0,0-1-1H48a1,1,0,0,0-1,1v8A1,1,0,0,0,48,12Z" transform="translate(-2 -2)"/><path d="M41.33,19.24H34c-.73,0-1.33.9-1.33,2v6c0,1.1.6,2,1.33,2h7.33c.74,0,1.34-.9,1.34-2v-6C42.67,20.14,42.07,19.24,41.33,19.24Z" transform="translate(-2 -2)"/><path d="M52.67,19.24H45.33c-.73,0-1.33.9-1.33,2v6c0,1.1.6,2,1.33,2h7.34c.73,0,1.33-.9,1.33-2v-6C54,20.14,53.4,19.24,52.67,19.24Z" transform="translate(-2 -2)"/><path d="M30,31.57H22.67c-.74,0-1.34.9-1.34,2v6c0,1.1.6,2,1.34,2H30c.73,0,1.33-.9,1.33-2v-6C31.33,32.47,30.73,31.57,30,31.57Z" transform="translate(-2 -2)"/><path d="M41.33,31.57H34c-.73,0-1.33.9-1.33,2v6c0,1.1.6,2,1.33,2h7.33c.74,0,1.34-.9,1.34-2v-6C42.67,32.47,42.07,31.57,41.33,31.57Z" transform="translate(-2 -2)"/><path d="M52.67,31.57H45.33c-.73,0-1.33.9-1.33,2v6c0,1.1.6,2,1.33,2h7.34c.73,0,1.33-.9,1.33-2v-6C54,32.47,53.4,31.57,52.67,31.57Z" transform="translate(-2 -2)"/><path d="M18.67,31.57H11.33c-.73,0-1.33.9-1.33,2v6c0,1.1.6,2,1.33,2h7.34c.73,0,1.33-.9,1.33-2v-6C20,32.47,19.4,31.57,18.67,31.57Z" transform="translate(-2 -2)"/><path d="M30,43.89H22.67c-.74,0-1.34.9-1.34,2v6c0,1.1.6,2,1.34,2H30c.73,0,1.33-.9,1.33-2v-6C31.33,44.79,30.73,43.89,30,43.89Z" transform="translate(-2 -2)"/><path d="M41.33,43.89H34c-.73,0-1.33.9-1.33,2v6c0,1.1.6,2,1.33,2h7.33c.74,0,1.34-.9,1.34-2v-6C42.67,44.79,42.07,43.89,41.33,43.89Z" transform="translate(-2 -2)"/><path d="M18.67,43.89H11.33c-.73,0-1.33.9-1.33,2v6c0,1.1.6,2,1.33,2h7.34c.73,0,1.33-.9,1.33-2v-6C20,44.79,19.4,43.89,18.67,43.89Z" transform="translate(-2 -2)"/></svg>