<svg id="Schedule" xmlns="http://www.w3.org/2000/svg" viewBox="0 0 60 60"><path d="M57,12.91V3.09A1.05,1.05,0,0,0,56,2H53a1.05,1.05,0,0,0-1,1.09v9.82H12V3.09A1.05,1.05,0,0,0,11,2H8A1.05,1.05,0,0,0,7,3.09v9.82a5.25,5.25,0,0,0-5,5.45V56.55A5.25,5.25,0,0,0,7,62H57a5.25,5.25,0,0,0,5-5.45V18.36A5.25,5.25,0,0,0,57,12.91Zm0,41.45a2.11,2.11,0,0,1-2,2.19H9a2.11,2.11,0,0,1-2-2.19V26a2.1,2.1,0,0,1,2-2.18H55A2.1,2.1,0,0,1,57,26Z" transform="translate(-2 -2)"/><path d="M51.39,34.91H33.06c-1.84,0-3.34,1.8-3.34,4v12c0,2.2,1.5,4,3.34,4H51.39c1.83,0,3.33-1.8,3.33-4v-12C54.72,36.71,53.22,34.91,51.39,34.91Z" transform="translate(-2 -2)"/></svg>