<svg id="Scores" xmlns="http://www.w3.org/2000/svg" viewBox="0 0 60 60"><path d="M19,23.82H15A2.1,2.1,0,0,0,13,26V48.91a2.1,2.1,0,0,0,2,2.18h4a2.1,2.1,0,0,0,2-2.18V26A2.1,2.1,0,0,0,19,23.82Z" transform="translate(-2 -2)"/><path d="M49,23.82H45A2.1,2.1,0,0,0,43,26V48.91a2.1,2.1,0,0,0,2,2.18h4a2.1,2.1,0,0,0,2-2.18V26A2.1,2.1,0,0,0,49,23.82Z" transform="translate(-2 -2)"/><path d="M57,12.91V3.09A1.05,1.05,0,0,0,56,2H53a1.05,1.05,0,0,0-1,1.09v9.82H12V3.09A1.05,1.05,0,0,0,11,2H8A1.05,1.05,0,0,0,7,3.09v9.82a5.25,5.25,0,0,0-5,5.45V56.55A5.25,5.25,0,0,0,7,62H57a5.25,5.25,0,0,0,5-5.45V18.36A5.25,5.25,0,0,0,57,12.91ZM27,49.45a4.21,4.21,0,0,1-4,4.37H11a4.21,4.21,0,0,1-4-4.37v-24a4.2,4.2,0,0,1,4-4.36H23a4.2,4.2,0,0,1,4,4.36ZM34.06,59a1,1,0,0,1-1,1h-2a1,1,0,0,1-1-1V16a1,1,0,0,1,1-1h2a1,1,0,0,1,1,1ZM57,49.45a4.21,4.21,0,0,1-4,4.37H41a4.21,4.21,0,0,1-4-4.37v-24a4.2,4.2,0,0,1,4-4.36H53a4.2,4.2,0,0,1,4,4.36Z" transform="translate(-2 -2)"/></svg>