<svg id="Scores" xmlns="http://www.w3.org/2000/svg" viewBox="0 0 60 60"><path d="M11.75,8A1.21,1.21,0,0,0,13,6.79V3.21a1.21,1.21,0,0,0-2.42,0V6.79A1.21,1.21,0,0,0,11.75,8Z" transform="translate(-2 -2)"/><path d="M21.75,8A1.21,1.21,0,0,0,23,6.79V3.21a1.21,1.21,0,0,0-2.42,0V6.79A1.21,1.21,0,0,0,21.75,8Z" transform="translate(-2 -2)"/><path d="M42.25,8a1.21,1.21,0,0,0,1.21-1.21V3.21a1.21,1.21,0,0,0-2.42,0V6.79A1.21,1.21,0,0,0,42.25,8Z" transform="translate(-2 -2)"/><path d="M52.25,8a1.21,1.21,0,0,0,1.21-1.21V3.21a1.21,1.21,0,0,0-2.42,0V6.79A1.21,1.21,0,0,0,52.25,8Z" transform="translate(-2 -2)"/><path d="M19.35,25.59a4.15,4.15,0,0,0-2.62-.86,4.1,4.1,0,0,0-2.56.86,5.63,5.63,0,0,0-1.79,2.69A14.13,14.13,0,0,0,11.72,33a14.13,14.13,0,0,0,.66,4.72,5.63,5.63,0,0,0,1.79,2.69,4.1,4.1,0,0,0,2.56.86,4.15,4.15,0,0,0,2.62-.86,5.67,5.67,0,0,0,1.76-2.69A14.73,14.73,0,0,0,21.75,33a14.73,14.73,0,0,0-.64-4.72A5.67,5.67,0,0,0,19.35,25.59Z" transform="translate(-2 -2)"/><path d="M24,4V6.79a2.21,2.21,0,0,1-4.42,0V4H14V6.79a2.21,2.21,0,1,1-4.42,0V4H7A5,5,0,0,0,2,9V57a5,5,0,0,0,5,5H31.5V4ZM26.3,40.19a10.69,10.69,0,0,1-3.91,4.5,10.37,10.37,0,0,1-5.66,1.56,10.31,10.31,0,0,1-5.62-1.56,10.69,10.69,0,0,1-3.91-4.5A16.11,16.11,0,0,1,5.75,33,16.11,16.11,0,0,1,7.2,25.81a10.78,10.78,0,0,1,3.91-4.51,10.39,10.39,0,0,1,5.62-1.55,10.45,10.45,0,0,1,5.66,1.55,10.78,10.78,0,0,1,3.91,4.51A16.11,16.11,0,0,1,27.75,33,16.11,16.11,0,0,1,26.3,40.19Z" transform="translate(-2 -2)"/><path d="M57,4H54.46V6.79a2.21,2.21,0,0,1-4.42,0V4H44.46V6.79a2.21,2.21,0,0,1-4.42,0V4H32.5V62H57a5,5,0,0,0,5-5V9A5,5,0,0,0,57,4Zm-.2,36.19a10.69,10.69,0,0,1-3.91,4.5,11,11,0,0,1-11.28,0,10.69,10.69,0,0,1-3.91-4.5A16.11,16.11,0,0,1,36.25,33a16.11,16.11,0,0,1,1.45-7.19,10.78,10.78,0,0,1,3.91-4.51,11,11,0,0,1,11.28,0,10.78,10.78,0,0,1,3.91,4.51A16.11,16.11,0,0,1,58.25,33,16.11,16.11,0,0,1,56.8,40.19Z" transform="translate(-2 -2)"/><path d="M49.85,25.59a4.15,4.15,0,0,0-2.62-.86,4.1,4.1,0,0,0-2.56.86,5.63,5.63,0,0,0-1.79,2.69A14.13,14.13,0,0,0,42.22,33a14.13,14.13,0,0,0,.66,4.72,5.63,5.63,0,0,0,1.79,2.69,4.1,4.1,0,0,0,2.56.86,4.15,4.15,0,0,0,2.62-.86,5.67,5.67,0,0,0,1.76-2.69A14.73,14.73,0,0,0,52.25,33a14.73,14.73,0,0,0-.64-4.72A5.67,5.67,0,0,0,49.85,25.59Z" transform="translate(-2 -2)"/></svg>