<svg id="Standings" xmlns="http://www.w3.org/2000/svg" viewBox="0 0 60 60"><path d="M25.65,62C23.09,62,21,59.57,21,56.59V7.41C21,4.43,23.09,2,25.65,2h12.7C40.91,2,43,4.43,43,7.41V56.59c0,3-2.09,5.41-4.65,5.41Z" transform="translate(-2 -2)"/><path d="M18.5,57V20a3,3,0,0,0-3-3H7.89C4.65,17,2,19.25,2,22V57c0,2.75,2.65,5,5.89,5H21.67A5.83,5.83,0,0,1,18.5,57Z" transform="translate(-2 -2)"/><path d="M56.11,32H48.5a3,3,0,0,0-3,3V57a5.83,5.83,0,0,1-3.17,5H56.11C59.35,62,62,59.75,62,57V37C62,34.25,59.35,32,56.11,32Z" transform="translate(-2 -2)"/></svg>