<svg id="Layer_1" data-name="Layer 1" xmlns="http://www.w3.org/2000/svg" viewBox="0 0 64 64"><defs><style>.cls-1{fill:#7F9FBA;}</style></defs><path class="cls-1" d="M47.73,34.07c-.08-.44-.61-.53-1-.65a6.92,6.92,0,0,0-.89-.25l-.45-.08c-.13,0-.14-.06-.2-.17A.87.87,0,0,0,44,32.65c-.07.05-.13.13-.22.14a1.4,1.4,0,0,1-.39-.07c-.33,0-.67-.09-1-.12-.65-.07-1.29-.11-1.94-.14-.32,0-.65,0-1-.07-.12,0-.46,0-.49-.16s.19-.35.3-.39.24,0,.36-.05a1.12,1.12,0,0,0,.27-.26,2.23,2.23,0,0,0,.41-.65,1,1,0,0,0,0-.45,1.16,1.16,0,0,1,.12-.44c.06-.16.07-.48.22-.55s.17,0,.26-.1a.79.79,0,0,0,.2-.31,3.25,3.25,0,0,0,.21-.67,1.18,1.18,0,0,0,0-.42c0-.15-.12-.24-.17-.38s0-.18.07-.28a2.29,2.29,0,0,1,.07-.28c.05-.1.15-.1.24-.16a.7.7,0,0,0,.23-.35,3.26,3.26,0,0,0,.17-.75,1.34,1.34,0,0,0,0-.4c0-.15-.15-.28-.17-.43a1.24,1.24,0,0,1,.16-.59.77.77,0,0,1,.23-.21.86.86,0,0,0,.27-.33,4.15,4.15,0,0,0,.2-.77,1.88,1.88,0,0,0,.05-.33c0-.18-.1-.24-.19-.36a.67.67,0,0,1,0-.57c.05-.08.14-.1.21-.16a.46.46,0,0,0,.19-.28,4.6,4.6,0,0,0,.14-.74,1.89,1.89,0,0,0,0-.41.9.9,0,0,0-.2-.34.49.49,0,0,1,.12-.63.94.94,0,0,0,.39-.68c.06-.31.19-.69,0-1,0-.08-.16-.17-.19-.26a.66.66,0,0,1,0-.28.58.58,0,0,1,.09-.29,1.39,1.39,0,0,0,.21-.27,3.43,3.43,0,0,0,.16-1,1.19,1.19,0,0,0,0-.42c0-.14-.16-.2-.25-.31s0-.22,0-.36a.44.44,0,0,1,0-.16s.1-.17.05-.13a1.16,1.16,0,0,0,.43-.78,2.28,2.28,0,0,0,0-1c0-.11-.17-.14-.21-.24a1.32,1.32,0,0,1,0-.44c0-.31.3-.42.4-.71,0-.13,0-.25.16-.34s.25-.12.36-.19a.71.71,0,0,0,.43-.69c0-.77,0-1.55,0-2.33,0-.44,0-.89,0-1.33a.93.93,0,0,0-.08-.5.91.91,0,0,0-.17-.17s-.2-.13-.13-.08a4.17,4.17,0,0,0-1.07-.39,10,10,0,0,0-1.21-.24c-.83-.12-1.67-.21-2.51-.3s-1.68-.09-2.52-.14-1.68,0-2.53-.08C34.43,4,34,4,33.46,4H30.65c-.43,0-.86,0-1.29,0-.84,0-1.69,0-2.53.07s-1.68,0-2.53.14l-2.56.28a12.72,12.72,0,0,0-1.37.26,4.2,4.2,0,0,0-1.14.41c.08-.06-.06,0-.08,0a.66.66,0,0,0-.17.12.52.52,0,0,0-.14.4c0,.36,0,.72,0,1.08,0,.8,0,1.59,0,2.39,0,.35-.08.72.24.94s.58.24.65.48a.83.83,0,0,0,.19.4c.08.11.22.19.27.32a1.6,1.6,0,0,1,0,.38c0,.11,0,.18,0,.27a.58.58,0,0,0-.21.39A3.62,3.62,0,0,0,20,13a2.18,2.18,0,0,0,.08.57,1.47,1.47,0,0,0,.38.48c-.06-.05,0,0,0,0a.54.54,0,0,1,.05.11,1,1,0,0,1,0,.24c0,.22-.08.28-.21.44a.55.55,0,0,0-.12.43l.09.7a1.22,1.22,0,0,0,.13.53c.1.15.24.2.27.39a.62.62,0,0,1-.05.48c-.09.15-.2.26-.19.45a2.9,2.9,0,0,0,.17,1,.79.79,0,0,0,.23.34.46.46,0,0,1,.26.39c0,.2,0,.26-.15.41a.72.72,0,0,0-.08.59,2.16,2.16,0,0,0,.25,1c.09.11.26.14.32.26a.9.9,0,0,1,0,.18.7.7,0,0,1,.05.25c0,.15-.14.19-.21.31s0,.41,0,.59a1.62,1.62,0,0,0,.37.95c.11.11.25.18.32.33a1.18,1.18,0,0,1,.14.55c0,.18-.17.32-.19.52a2.1,2.1,0,0,0,.08.66,1.93,1.93,0,0,0,.17.53.51.51,0,0,0,.2.21c.08,0,.15.06.21.15a1.64,1.64,0,0,1,.13.46c0,.15-.12.3-.15.46a2.31,2.31,0,0,0,.29,1.23.54.54,0,0,0,.33.28c.19.07.2.21.25.4a4.51,4.51,0,0,1,.17.52c0,.19-.09.34,0,.54a1.5,1.5,0,0,0,.28.47,1.33,1.33,0,0,0,.41.44c.13.06.28,0,.4.09s.28.28.23.39-.31.09-.42.1-.45,0-.68.06l-1.42.1c-.46,0-.91.06-1.36.11-.24,0-.48.06-.71.11s-.28,0-.47-.14a.84.84,0,0,0-1,.12c-.09.09-.14.26-.24.32a1.58,1.58,0,0,1-.61.12,6.31,6.31,0,0,0-1.28.39c-.37.15-.57.35-.49.77.35,1.85.79,3.68,1.21,5.51.21.94.44,1.87.68,2.8.11.44.18.9.32,1.33s.32.84.74.94c.12,0,.28,0,.4,0s.16.28.22.38a1.27,1.27,0,0,0,.92.56,7.62,7.62,0,0,0,2.68-.32,6.53,6.53,0,0,0,1.24-.27c.09.6.3,1.22,1,1.17a3.82,3.82,0,0,0,1.17-.38l1.25-.56a1.48,1.48,0,0,1,.58-.16c.22,0,.45,0,.67,0h1a1,1,0,0,1,.24,0c.11.06.06.33,0,.42v2.17l0,11.4c0,1,0,1.92,0,2.88,0,.45,0,.9,0,1.35s.41.42.77.42.94,0,1.4,0a.81.81,0,0,0,.49-.11.5.5,0,0,0,.11-.41c0-.95,0-1.9,0-2.85l0-11.34c0-1,0-1.91,0-2.87,0-.2,0-.41,0-.62s-.07-.4.06-.44a.67.67,0,0,1,.2,0h1c.21,0,.42,0,.64,0a1.59,1.59,0,0,1,.63.19l1.21.53c.56.25,1.51.72,1.94,0a2.06,2.06,0,0,0,.24-.8,4.08,4.08,0,0,0,.84.19c.3,0,.6.13.9.19a8.19,8.19,0,0,0,1.77.24,1.63,1.63,0,0,0,1.2-.41,2.7,2.7,0,0,0,.22-.33c0-.06.06-.21.12-.24s.16,0,.22,0a.67.67,0,0,0,.36-.09,1.81,1.81,0,0,0,.69-1.3c.12-.57.27-1.13.41-1.69.33-1.28.59-2.57.88-3.85.16-.69.33-1.38.48-2.07l.21-1A2.75,2.75,0,0,0,47.73,34.07Zm-27.36,0c.14-.12.08-.38.2-.47s.15,0,.21,0l.38,0,1.52-.12c.26,0,.52,0,.78,0a1.18,1.18,0,0,0,.46,0,1.18,1.18,0,0,0,.26.83.73.73,0,0,0-.45.25c0,.05-.06.1-.11.12a.71.71,0,0,1-.29,0c-.51,0-1-.1-1.54-.14l-1.53-.12a2.52,2.52,0,0,1-.37-.05.76.76,0,0,1-.27,0c-.07,0,0-.2,0-.21A.62.62,0,0,0,20.37,34.06Zm3.41,2.41a5.56,5.56,0,0,0,0,.91,6.27,6.27,0,0,0-.86.09l-.93.12c-.53.07-1,.18-1.56.3-.21,0-.26,0-.31-.21s-.09-.47-.14-.7-.13-.63-.19-.94a9.09,9.09,0,0,0-.15-.91l2.85.15c.22,0,.45,0,.67,0a1.41,1.41,0,0,1,.46,0c.12.06.07.27.07.39S23.77,36.23,23.78,36.47ZM20.63,39l.38-.09a14.54,14.54,0,0,1,1.71-.29l.82-.1c.13,0,.33-.11.36.06a.81.81,0,0,1,0,.22c0,.15,0,.31,0,.47,0,.34.05.67.07,1a12.9,12.9,0,0,1-3.22-.38c-.23-.06-.22-.39-.25-.59a1.29,1.29,0,0,1,0-.19C20.5,39,20.51,39,20.63,39Zm-.88.21a2.82,2.82,0,0,0,.07.31c-.1,0-.38-.06-.41-.21ZM19,36.58a11,11,0,0,0,.41,1.52l-.25.07A5,5,0,0,0,19,37.4c-.07-.3-.15-.61-.22-.91s-.14-.55-.19-.83a2.93,2.93,0,0,0-.21-.77,1,1,0,0,0,.24,0C18.78,35.48,18.88,36,19,36.58Zm-.43-2.76,0,.23c-.14-.06-.4,0-.51-.12A3.45,3.45,0,0,0,18.59,33.82Zm-.44,4.72L18,38.6l-.27-1.18c0-.18-.09-.37-.13-.55l-.06-.23s-.05-.26,0-.22c-.07-.37-.17-.73-.26-1.09a2.32,2.32,0,0,0-.22-.83,5.31,5.31,0,0,0,.56.2c.16,0,.17.1.21.27.09.43.2.87.33,1.3s.23.84.31,1.28c0,.22.06.44.12.66,0,0,.05.12,0,.13a.29.29,0,0,1-.14,0Zm1.59,5.53a1,1,0,0,1-.3,0c-.12,0-.1-.09-.13-.21s-.08-.38-.13-.57c-.1-.36-.17-.73-.25-1.1s-.17-.69-.25-1c-.05-.19-.09-.38-.13-.57a1.17,1.17,0,0,0-.13-.45l.47.11c.15,0,.11.09.13.23.05.45.17.9.26,1.34s.18.9.3,1.34c.05.21.11.42.14.63C19.73,43.84,19.78,44,19.74,44.07Zm.77-.18-.15-.67c-.09-.44-.18-.89-.28-1.33-.06-.26-.11-.52-.17-.78a2.11,2.11,0,0,0-.16-.61c.15,0,.26,0,.31.2a4.1,4.1,0,0,1,.1.48c.11.43.2.87.31,1.3s.12.58.19.86.15.53.41.61l-.31,0c-.05,0-.14,0-.18,0S20.53,44,20.51,43.89Zm3.53.69a3.26,3.26,0,0,1-1.63.37,2.63,2.63,0,0,1-1.82-.13c.58-.08,1.16-.13,1.75-.18A10.59,10.59,0,0,0,24,44.42C24,44.48,24.06,44.53,24,44.58Zm.22-1.52-1.48.06-.77,0h-.36a.74.74,0,0,1-.21,0c-.1,0-.09-.2-.11-.29-.06-.25-.11-.49-.16-.73a7.1,7.1,0,0,0-.32-1.38c.45.09.92.12,1.38.18l1.39.16.3,0s.14,0,.18,0,.07.38.08.5c0,.47.08.94.13,1.41Zm14.81-9.35a1,1,0,0,0-.18.92,1.42,1.42,0,0,0-.46,0l-.51,0-1.06,0c.18,0,.3-.31.36-.47a1.45,1.45,0,0,0,.05-.3.45.45,0,0,1,.19-.26.43.43,0,0,1,.32-.11,1,1,0,0,0,.43-.14c.08,0,.16-.15.26-.18a1.22,1.22,0,0,1,.38,0s0,.16,0,.18A.53.53,0,0,0,39.07,33.71Zm-2.44-1.28c-.14,0-.26,0-.34-.12a1.62,1.62,0,0,1-.09-.38,1.27,1.27,0,0,0,.44-.07l.14-.11a1.58,1.58,0,0,0-.15.24A1.09,1.09,0,0,0,36.63,32.43Zm-.13-3.2a.53.53,0,0,0-.07.5c0,.18.12.31,0,.48s-.28.11-.44.16a.71.71,0,0,0-.36.28c-.13.17-.33.31-.23.54s.11.35-.09.44a2.5,2.5,0,0,0-.25.09.75.75,0,0,0-.24.26c-.12.15-.19.29-.4.28.18-.09.24-.37.31-.54s.26-.49.19-.73-.25-.3-.15-.58a.4.4,0,0,1,.14-.24c.09-.07.2-.08.29-.16a2.33,2.33,0,0,0,.45-1.21.59.59,0,0,0-.13-.23c0-.05-.14-.12-.15-.18a.46.46,0,0,1,.13-.37c.08-.05.18-.05.25-.11a.5.5,0,0,0,.16-.27,7,7,0,0,0,.23-.78c.07-.24.15-.41,0-.63A.6.6,0,0,1,36,26a1.29,1.29,0,0,1,.08-.38c.07-.18.23-.22.36-.36a1.31,1.31,0,0,0,.21-.62.87.87,0,0,0,0-.67c-.1-.17-.3-.26-.26-.48a.7.7,0,0,1,.25-.52c.18-.13.31-.2.35-.44s.07-.42.11-.64a.78.78,0,0,0-.19-.69.45.45,0,0,1,0-.45c.08-.17.27-.22.36-.37a3.61,3.61,0,0,0,.13-.67.81.81,0,0,0-.07-.68c-.13-.2-.24-.3-.22-.55s.14-.21.26-.37a.93.93,0,0,0,.12-.5,1.6,1.6,0,0,0,0-.84c-.07-.18-.23-.32-.24-.52a.76.76,0,0,1,0-.26c0-.11.11-.14.19-.21a1.07,1.07,0,0,0,.18-.61,2.84,2.84,0,0,0,.06-.71.64.64,0,0,0-.11-.3c-.07-.1-.19-.15-.25-.25a.79.79,0,0,1,0-.48c0-.07.12-.11.18-.17a.6.6,0,0,0,.1-.31c0-.3.08-.59.11-.89a.45.45,0,0,0-.07-.34c-.06-.07-.15-.1-.2-.17a.27.27,0,0,1-.06-.21c0-.11,0-.1.13-.1.65,0,1.29-.05,1.93-.1,0,.12.05.27,0,.38s-.23.14-.3.27a1.46,1.46,0,0,0-.06.51c0,.17,0,.35,0,.52a.45.45,0,0,0,.14.4c.09.07.25.08.3.22a1.64,1.64,0,0,1,0,.44.45.45,0,0,1-.19.35,1.15,1.15,0,0,0-.27.84,1.29,1.29,0,0,0,0,.44c0,.14.18.22.26.34s0,.56-.16.74a.82.82,0,0,0-.27.34,4,4,0,0,0-.09.5,1.1,1.1,0,0,0,0,.54c0,.14.2.2.26.32a.82.82,0,0,1,0,.41c0,.2-.16.26-.27.42a2.36,2.36,0,0,0-.25,1,.56.56,0,0,0,.05.44c.07.08.24.12.28.22.1.3-.28.45-.45.59s-.26.71-.31,1a1.23,1.23,0,0,0,0,.5,1.32,1.32,0,0,0,.3.44c.28.33-.16.47-.36.65a1.49,1.49,0,0,0-.32,1,.57.57,0,0,0,.17.49c.14.14.2.21.15.42s0,.25-.17.32a.93.93,0,0,0-.38.23,1.91,1.91,0,0,0-.18.47,1.08,1.08,0,0,0-.07.59,2.42,2.42,0,0,0,.16.48.43.43,0,0,1,0,.46c-.09.12-.26.18-.37.28A1.79,1.79,0,0,0,36.5,29.23Zm-.86,4.38a.65.65,0,0,1-.47.5c-.26.08-.48-.07-.36-.35a1.1,1.1,0,0,1,.43-.54C35.48,33.12,35.66,33.4,35.64,33.61Zm-2.13-4.29c0-.05.13-.05.17-.08a.47.47,0,0,0,.19-.18,1.29,1.29,0,0,0,.08-.55c0-.13,0-.26,0-.39a.45.45,0,0,0,0-.2s-.11-.13-.08-.09c-.12-.12-.2-.11-.21-.3s0-.24.07-.3S34,27.15,34,27a1.25,1.25,0,0,0,0-.47A4.26,4.26,0,0,0,34,26c0-.21-.17-.24-.28-.39a.66.66,0,0,1-.06-.44c0-.13.21-.16.3-.25a.72.72,0,0,0,.13-.52,4.47,4.47,0,0,0,0-.52.51.51,0,0,0-.19-.42.39.39,0,0,1-.19-.34c0-.21.11-.23.24-.38a.64.64,0,0,0,.13-.52c0-.31.09-.74-.1-1s-.25-.17-.24-.37.13-.15.24-.22.22-.55.2-.83a2.85,2.85,0,0,0,0-.51c-.05-.18-.21-.25-.31-.4a.56.56,0,0,1-.08-.4c0-.12.18-.14.25-.24a.92.92,0,0,0,.08-.4,4.17,4.17,0,0,0,0-.5.85.85,0,0,0-.12-.41c-.08-.13-.19-.17-.22-.33s0-.21.12-.29.28-.19.29-.39,0-.37,0-.55a1.11,1.11,0,0,0-.1-.6c-.11-.16-.3-.24-.33-.44s.17-.18.3-.26.16-.7.16-1a.62.62,0,0,0-.12-.46c-.06-.06-.15-.05-.23-.09s-.09-.1-.09-.23a2.44,2.44,0,0,1,0-.27c0-.11.11-.14.18-.21s.13-.35.11-.56c.85,0,1.71,0,2.56,0a.66.66,0,0,1,0,.28c0,.09-.17.13-.23.22a.47.47,0,0,0-.11.26c0,.06,0,.12,0,.18s0,.19,0,.08a1.71,1.71,0,0,0,0,.45,1.55,1.55,0,0,0,0,.21l.08.13c.07.13.23.17.32.28s.06.25.05.4a.67.67,0,0,1-.24.45.78.78,0,0,0-.18.44,1.44,1.44,0,0,0,.1,1.12c.11.14.24.25.2.44s-.2.27-.32.42a.67.67,0,0,0-.13.41,2.54,2.54,0,0,0-.06.67,1.1,1.1,0,0,0,.26.44.56.56,0,0,1,0,.46c-.07.3-.45.41-.52.74A1.24,1.24,0,0,0,36,20.38c.11.13.26.22.26.41s-.11.25-.28.34a.79.79,0,0,0-.37.35,2.17,2.17,0,0,0-.07.35l0,.16s0,.27,0,.15a.55.55,0,0,0,.14.47c.09.12.26.24.27.4a1.39,1.39,0,0,1-.06.4c0,.17-.17.21-.32.28s-.33.51-.4.81a1,1,0,0,0,0,.53c.06.16.28.26.3.42s-.21.44-.41.55-.39.63-.47,1c0,.18-.11.35,0,.52s.25.24.26.39c0,.35-.34.32-.48.54a3.21,3.21,0,0,0-.26.67.89.89,0,0,0-.12.61c0,.14.24.32.22.48s-.22.19-.33.25a.67.67,0,0,0-.05-.37.41.41,0,0,0-.12-.14s-.11,0-.14-.07,0-.21,0-.29S33.48,29.37,33.51,29.32ZM33.8,33a2.2,2.2,0,0,1,.92,0c-.09.17-.34.4-.54.35a.69.69,0,0,1-.29-.16S33.72,33,33.8,33Zm5-1.61a.43.43,0,0,1-.23.4.41.41,0,0,1-.39,0c-.15-.11,0-.27.07-.37s.15,0,.25-.08a.79.79,0,0,0,.31-.17A.81.81,0,0,0,38.76,31.37Zm.18-3.92a1.52,1.52,0,0,0-.38,1.65c0,.07.12.14.13.23a.81.81,0,0,1-.14.33c-.07.07-.19.06-.27.11A.83.83,0,0,0,38,30a1,1,0,0,0-.25.72.59.59,0,0,1-.29.53,2.29,2.29,0,0,0-.28.08,1.26,1.26,0,0,0-.24.22l.1-.14a.43.43,0,0,0,.12-.44c0-.14-.23-.24-.17-.39a.7.7,0,0,1,.33-.33,1.33,1.33,0,0,0,.36-.35c.19-.25.46-.57.31-.9-.07-.15,0-.16,0-.31s.07-.27.21-.37.23-.13.3-.29a2.23,2.23,0,0,0,.16-.56,2.26,2.26,0,0,0,.08-.51,1.91,1.91,0,0,0-.16-.53,1,1,0,0,1,0-.54c0-.13.15-.14.25-.23a1.61,1.61,0,0,0,.3-.83,1.1,1.1,0,0,0,0-.51c0-.16-.16-.28-.19-.44a1,1,0,0,1,.07-.48c0-.13.2-.18.27-.31a2.79,2.79,0,0,0,.2-1,.87.87,0,0,0,0-.48c0-.15-.21-.24-.26-.37-.12-.34.25-.43.36-.67a1.87,1.87,0,0,0,.09-.46c0-.22.09-.42.12-.64a.5.5,0,0,0-.12-.45.48.48,0,0,1-.09-.45c0-.2.19-.22.3-.37a1,1,0,0,0,.15-.47c.06-.31.26-.79.06-1.08,0-.07-.13-.12-.16-.2s0-.16,0-.24a.69.69,0,0,1,.15-.44,1.16,1.16,0,0,0,.15-.51c0-.13,0-.26,0-.38s0-.11,0-.16,0-.2,0-.13c.06-.27-.2-.35-.27-.57a.61.61,0,0,1,.13-.61.74.74,0,0,0,.26-.61c0-.23,0-.48.06-.71s0-.37-.18-.5a.37.37,0,0,1-.2-.48c0-.08,0-.08.11-.09l.26,0c.31,0,.63-.08.94-.12,0,.28-.15.74,0,1s.24.15.27.27a1.28,1.28,0,0,1,0,.39c0,.13-.19.18-.27.28a1.08,1.08,0,0,0-.17.43,2.29,2.29,0,0,0-.06.9c0,.16.11.2.23.29s.1.19.08.33a.71.71,0,0,1-.14.39,1.73,1.73,0,0,0-.3.41,2.28,2.28,0,0,0-.16.93.66.66,0,0,0,.15.41c.13.16.1.24.07.43s0,.23-.18.32a.58.58,0,0,0-.27.39,1.5,1.5,0,0,0-.07,1.06c.06.11.22.19.25.32a1.23,1.23,0,0,1-.07.46c-.05.1-.18.16-.27.22a.79.79,0,0,0-.24.4,1.41,1.41,0,0,0,0,1c.07.13.13.17.1.34s0,.44-.13.55-.24.07-.33.2a1.44,1.44,0,0,0-.17.45,1.06,1.06,0,0,0,.07,1,.71.71,0,0,1,.12.18,1.41,1.41,0,0,1,0,.27c0,.12,0,.34-.12.43a1,1,0,0,1-.23.12.65.65,0,0,0-.18.19,1.82,1.82,0,0,0-.22.56,1,1,0,0,0,0,.6c.05.14.2.22.21.37a1,1,0,0,1-.09.43C39.18,27.33,39.07,27.34,38.94,27.45ZM39.82,30c-.08.08-.2,0-.3.08a1.14,1.14,0,0,0-.43.36A2.73,2.73,0,0,0,39,30a1,1,0,0,1,.18-.42c.07-.15.11-.14.26-.17a.44.44,0,0,0,.31-.25c0,.08.18.14.15.24S40,29.88,39.82,30Zm.84-3.12c0,.14,0,.38-.12.49s-.14.05-.21.08a.83.83,0,0,0-.3.23c0-.14-.13-.2-.1-.36s0-.3.09-.44.08-.12.19-.19a.81.81,0,0,0,.29-.39C40.51,26.52,40.7,26.7,40.66,26.9Zm2.47-15.52c0,.14,0,.28,0,.42a.58.58,0,0,1-.19.34,1.45,1.45,0,0,0-.19.77c0,.21-.14.5,0,.7s.17.15.23.24a.58.58,0,0,1,0,.39,1.12,1.12,0,0,1,0,.32c0,.11-.16.16-.24.24a1.09,1.09,0,0,0-.21.79c0,.26-.11.69.1.89s.16.13.15.27a1.51,1.51,0,0,1-.06.37,1.5,1.5,0,0,1-.24.27.93.93,0,0,0-.18.39,2.94,2.94,0,0,0-.12.89,1,1,0,0,0,.11.38.45.45,0,0,1,.12.33.51.51,0,0,1-.13.29,1.81,1.81,0,0,0-.3.25,2,2,0,0,0-.2.69,1.27,1.27,0,0,0,0,.72c0,.12.12.17.17.27s0,.25,0,.37,0,.25-.12.33a1.31,1.31,0,0,0-.27.21,1.68,1.68,0,0,0-.26.76,1.07,1.07,0,0,0,.13.8c.08.14,0,.25,0,.4a1.31,1.31,0,0,1-.09.34c-.07.12-.22.12-.32.2a.81.81,0,0,0-.28.4,1,1,0,0,0-.08-.3.89.89,0,0,1,0-.28c0-.19,0-.47.18-.6a.81.81,0,0,0,.34-.49,1.88,1.88,0,0,0,.09-.78c0-.22-.21-.38-.16-.6s0-.39.21-.48a.52.52,0,0,0,.32-.33,4.64,4.64,0,0,0,.14-.83.74.74,0,0,0-.12-.5c-.06-.08-.11-.11-.12-.21a1.7,1.7,0,0,1,.06-.31.57.57,0,0,1,.23-.41,1.17,1.17,0,0,0,.26-.6A1.76,1.76,0,0,0,42,18a.43.43,0,0,0-.11-.26c0-.05-.12-.08-.14-.16a.91.91,0,0,1,.08-.39c.09-.18.29-.24.36-.45a5.52,5.52,0,0,0,.15-.68,1.13,1.13,0,0,0-.05-.75c-.06-.09-.14-.15-.2-.24a.38.38,0,0,1,0-.24.75.75,0,0,1,0-.3c0-.1.14-.13.23-.19-.07,0,0-.05.07-.09a.49.49,0,0,0,.08-.18,1.49,1.49,0,0,0,.07-.43,4.53,4.53,0,0,0,0-.52c0-.21-.11-.26-.23-.42a.6.6,0,0,1,0-.35.48.48,0,0,1,.18-.41c.27-.25.24-.64.27-1C42.81,11.15,43.18,11.22,43.13,11.38Zm-20.73,11c-.06-.05-.14-.07-.18-.14a1.34,1.34,0,0,1-.1-.44.28.28,0,0,1,.09-.26.55.55,0,0,0,.14-.37,3.94,3.94,0,0,0-.15-.9.86.86,0,0,0-.12-.35c-.09-.12-.22-.16-.32-.26s-.11-.41,0-.61a1.13,1.13,0,0,0,.09-.79,1.9,1.9,0,0,0-.22-.78c-.07-.1-.18-.18-.25-.29a.73.73,0,0,1-.1-.39c0-.24.21-.31.25-.54a3.37,3.37,0,0,0,0-.84,1.41,1.41,0,0,0-.07-.41.59.59,0,0,0-.26-.3C21,14.56,21,14.25,21,14s.11-.22.2-.34a.58.58,0,0,0,.08-.43,3.77,3.77,0,0,0-.15-.95c0-.13-.16-.2-.22-.32a1.29,1.29,0,0,1-.07-.43c0-.13,0-.24.08-.33s.23-.1.26-.23a1.52,1.52,0,0,0,.19.92c.15.16.24.19.25.43s0,.28,0,.39-.2.23-.22.42a2.9,2.9,0,0,0,0,.51,1.84,1.84,0,0,0,.06.41.7.7,0,0,0,.08.2s.15.14.09.1.18.1.22.2a1.26,1.26,0,0,1,0,.28.41.41,0,0,1,0,.22c0,.09-.15.16-.2.24a.81.81,0,0,0-.1.61c0,.21.06.43.1.64a.79.79,0,0,0,.28.51.61.61,0,0,1,.21.43c0,.18-.1.19-.18.34a1,1,0,0,0,0,.6,2.16,2.16,0,0,0,.15.62c.09.19.3.26.37.44a1,1,0,0,1,.06.6c-.08.19-.23.24-.22.48a4.66,4.66,0,0,0,.08.64.87.87,0,0,0,.2.53c.13.13.31.12.35.33a2.56,2.56,0,0,1,.05.27.69.69,0,0,1-.08.32,1.47,1.47,0,0,0-.08.71q0-.21-.09-.39A1,1,0,0,0,22.4,22.37ZM23.08,25c-.1-.07-.22-.08-.29-.18a1.46,1.46,0,0,1-.1-.34.51.51,0,0,1,0-.34c.05-.13.16-.21.19-.35a.76.76,0,0,0,0-.26,1.15,1.15,0,0,0,.26.58c.06.07.17.1.22.18a.89.89,0,0,1,.08.34,1.76,1.76,0,0,1,.06.4c0,.13-.09.25-.09.39A.91.91,0,0,0,23.08,25Zm.59,2.49c-.09-.05-.18-.05-.25-.15a.88.88,0,0,1-.1-.36c0-.26.15-.41.16-.65a.77.77,0,0,0,.3.39c.1.07.15.07.19.19s.06.3.08.44-.06.22-.1.36A.85.85,0,0,0,23.67,27.48Zm1.23,2.68a.76.76,0,0,0,0,.3,1.19,1.19,0,0,0-.39-.35c-.11-.05-.24,0-.33-.12a.84.84,0,0,1-.11-.45.46.46,0,0,1,0-.26c0-.06.1-.09.13-.16a.41.41,0,0,0,.34.24c.18,0,.21.08.28.25A1.06,1.06,0,0,1,25,30C25,30,24.91,30.09,24.9,30.16Zm0-2.79c-.12-.08-.15-.05-.19-.2a1.47,1.47,0,0,1-.08-.45c0-.14.18-.24.22-.39a1.07,1.07,0,0,0,0-.47,1.25,1.25,0,0,0-.41-.8c-.09-.06-.23-.09-.29-.19a2,2,0,0,1-.1-.49c0-.19,0-.22.11-.38a.82.82,0,0,0,.12-.49,1.62,1.62,0,0,0-.28-.93c-.09-.09-.23-.08-.31-.17a1,1,0,0,1-.09-.38,1,1,0,0,1,0-.33c.06-.15.17-.21.19-.38a2.2,2.2,0,0,0-.15-.92.61.61,0,0,0-.28-.33.39.39,0,0,1-.23-.35.5.5,0,0,1,0-.32c.08-.15.22-.25.25-.44a1.39,1.39,0,0,0,0-.57,1.69,1.69,0,0,0-.13-.49c-.08-.15-.22-.17-.32-.28a.82.82,0,0,1-.1-.3.36.36,0,0,1,0-.32c.1-.16.2-.25.2-.45a2.21,2.21,0,0,0-.16-1,4.24,4.24,0,0,0-.33-.39.77.77,0,0,1-.11-.39c0-.21,0-.23.18-.36a.54.54,0,0,0,.14-.47,4.78,4.78,0,0,0-.07-.65.81.81,0,0,0-.18-.45c-.11-.11-.24-.16-.26-.33a.53.53,0,0,1,.07-.43c.07-.06.15-.08.2-.15a.48.48,0,0,0,0-.26,6,6,0,0,0,0-.74l.91.11c.16,0,.38,0,.4.17a.61.61,0,0,1,0,.3c0,.08-.19.12-.26.19s-.11.35-.1.55,0,.54.06.81.17.27.31.43a.8.8,0,0,1,.08.59c-.08.21-.34.29-.27.56,0-.06,0,.05,0,.06s0,.1,0,.15,0,.21,0,.32a1.65,1.65,0,0,0,.09.54c.06.13.18.17.2.31a1.07,1.07,0,0,1,0,.47c-.05.12-.18.18-.22.31a1.4,1.4,0,0,0,.06.64,1.6,1.6,0,0,0,.25.86c.08.09.2.13.24.25a.53.53,0,0,1,0,.46c-.1.14-.19.22-.18.41a3.89,3.89,0,0,0,.1.56c0,.18.05.37.09.55a.69.69,0,0,0,.28.35.36.36,0,0,1,.12.29c0,.16-.11.23-.2.36-.2.29-.06.69,0,1a3.65,3.65,0,0,0,.07.46c0,.17.15.23.27.34a.7.7,0,0,1,0,.76,1.46,1.46,0,0,0,0,1.07,1.21,1.21,0,0,0,.12.41c.07.13.2.16.29.25s.08.24.1.36a1,1,0,0,1-.11.53,2.1,2.1,0,0,0,.13,1.21.6.6,0,0,0,.24.38.52.52,0,0,1,.29.31c.05.18.11.28,0,.46a.53.53,0,0,0,.09.51,2.46,2.46,0,0,0,.37.54c.11.13.29.15.4.27a.53.53,0,0,1,.17.32c0,.08-.13.18-.16.26a.34.34,0,0,0,0,.24.73.73,0,0,0,.15.29l-.11-.11c-.12-.08-.26,0-.38-.11a.66.66,0,0,1-.2-.29.74.74,0,0,1,0-.33,1.21,1.21,0,0,0-.42-.77.51.51,0,0,0-.16-.13c-.06,0-.13,0-.19-.05s-.11-.14-.15-.23-.09-.15,0-.24a1,1,0,0,0,.19-.31A1.58,1.58,0,0,0,24.93,27.37Zm0-14.72a4.1,4.1,0,0,0,0-.5.78.78,0,0,0-.07-.38c-.06-.11-.19-.14-.26-.24s-.05-.26-.05-.39c.59,0,1.18.08,1.78.1.17,0,.32-.05.27.19s-.19.19-.28.33,0,.5,0,.7a2.36,2.36,0,0,0,.12.75c.09.14.21.16.23.34s0,.3-.12.45c-.35.35-.26.8-.19,1.26a.72.72,0,0,0,.24.54c.16.12.17.24.15.44s-.19.38-.25.59a2,2,0,0,0,0,.8c0,.22,0,.41.19.56a.4.4,0,0,1,.2.44c0,.17-.17.29-.26.44a.92.92,0,0,0,0,.71c.05.19,0,.45.13.62s.29.2.35.4a.4.4,0,0,1-.08.44.84.84,0,0,0-.14.67c0,.21.07.42.1.62s.18.32.37.45.16.24.21.42a.57.57,0,0,1,0,.22c0,.09-.14.17-.2.24a.69.69,0,0,0-.11.65,6.48,6.48,0,0,0,.17.63c.08.18.27.21.38.36a.75.75,0,0,1,.1.58c-.05.1-.14.16-.19.26a.47.47,0,0,0,0,.31,8.65,8.65,0,0,0,.25.87.76.76,0,0,0,.17.35c.06.06.16.08.23.13s.24.28.18.41-.14.15-.19.21a.36.36,0,0,0-.09.35,3.49,3.49,0,0,0,.34.88.67.67,0,0,0,.24.26c.1.05.2.05.25.16a.71.71,0,0,1,.1.31c0,.11-.11.22-.15.32a.84.84,0,0,0,.1.72c.08.19.15.54.35.64-.33,0-.4-.37-.63-.54s-.25,0-.34-.14a.28.28,0,0,1-.06-.3c.07-.16.12-.25,0-.41a2.22,2.22,0,0,0-.28-.33.54.54,0,0,0-.29-.17c-.14,0-.29,0-.39-.13s.09-.57,0-.85A1.39,1.39,0,0,0,27,28.7c-.23-.15-.38-.23-.33-.53a2.35,2.35,0,0,1,.11-.35l.07-.18s0-.14,0-.09a1.7,1.7,0,0,0-.15-.83.61.61,0,0,0-.19-.33c-.11-.08-.28-.07-.38-.18a.55.55,0,0,1,0-.58c.06-.1.17-.17.23-.27a.71.71,0,0,0,.06-.43,1.56,1.56,0,0,0-.26-.87c-.16-.17-.57-.25-.52-.56,0-.12.15-.21.22-.3a.7.7,0,0,0,.19-.47,4.32,4.32,0,0,0-.17-.94.8.8,0,0,0-.14-.36,3.77,3.77,0,0,0-.39-.26.37.37,0,0,1-.11-.31c0-.14.15-.16.23-.25s.07-.53,0-.77a1.42,1.42,0,0,0-.29-.84.54.54,0,0,1-.18-.34c0-.1-.09-.25-.05-.35s.19-.18.25-.28a.72.72,0,0,0,0-.5,1.55,1.55,0,0,0-.28-.86,2.2,2.2,0,0,1-.26-.27.85.85,0,0,1-.06-.42c0-.15.17-.23.25-.35a.62.62,0,0,0,.08-.46,1.37,1.37,0,0,0-.33-1c-.13-.11-.13-.21-.13-.38s-.06-.3,0-.4.26-.12.34-.27A.84.84,0,0,0,24.94,12.65Zm2.77.3a.86.86,0,0,0,.05-.23,1.71,1.71,0,0,0,0-.45v0a.88.88,0,0,0-.15-.59,1.07,1.07,0,0,1-.19-.18.56.56,0,0,1-.06-.29c.85,0,1.71.06,2.57,0,0,.18-.08.38.06.53s.24.12.23.31,0,.31,0,.39-.3.06-.36.27a2.47,2.47,0,0,0,0,.61,1.59,1.59,0,0,0,0,.53c.09.25.61.22.37.57-.09.12-.24.19-.31.34a1.49,1.49,0,0,0-.06.56,2.69,2.69,0,0,0,0,.57c0,.19.16.26.31.36a.27.27,0,0,1,.1.3c0,.17-.2.24-.26.39a1.12,1.12,0,0,0-.06.48,1.88,1.88,0,0,0,0,.67c.05.13.16.15.24.23a.37.37,0,0,1,0,.34c0,.16-.13.22-.24.33a.67.67,0,0,0-.14.51c0,.3-.12.82.16,1,.1.07.23.1.26.22s-.13.25-.22.36a.8.8,0,0,0-.1.5c0,.17,0,.33,0,.49a.94.94,0,0,0,.05.47c.08.14.28.2.33.35.11.36-.31.44-.37.74a1.68,1.68,0,0,0,0,.5,2.53,2.53,0,0,0,0,.48c.05.21.16.23.31.34s.11.2.09.35a.59.59,0,0,1-.2.36.55.55,0,0,0-.15.41c0,.25-.12.75.09.95s.29.07.32.26a.57.57,0,0,1,0,.26c0,.11-.14.12-.21.2s-.06.06-.07.07a.37.37,0,0,0-.05.17,1.83,1.83,0,0,0,0,.33c0,.24-.05.6.15.77s.23.08.28.19a1.33,1.33,0,0,1,0,.4c0,.16-.14.13-.23.24a.74.74,0,0,0-.08.44c-.1-.05-.26-.09-.32-.19s.05-.27.11-.36a.54.54,0,0,0,.09-.46c0-.2-.13-.4-.2-.6a1.49,1.49,0,0,0-.21-.48c-.1-.1-.26-.07-.36-.17-.24-.28.05-.44.17-.67a.6.6,0,0,0,0-.49c-.05-.19-.11-.39-.17-.58a.7.7,0,0,0-.25-.41c-.13-.09-.32-.13-.39-.28a.45.45,0,0,1,0-.39c.09-.15.23-.25.28-.43a1.14,1.14,0,0,0-.06-.55,1.47,1.47,0,0,0-.19-.53,1.11,1.11,0,0,0-.37-.27c-.14-.1-.14-.28-.17-.44-.07-.39.49-.57.39-1,0,.1,0,0,0,0a1.23,1.23,0,0,0,0-.19l-.06-.33a.61.61,0,0,0-.22-.36c-.22-.15-.62-.29-.39-.63.09-.13.24-.22.31-.37a1,1,0,0,0,0-.55,1.49,1.49,0,0,0-.08-.52c-.09-.17-.27-.25-.38-.39a.67.67,0,0,1-.13-.5c0-.18.2-.26.28-.41a.86.86,0,0,0,0-.55,1.71,1.71,0,0,0-.09-.6c-.13-.25-.53-.35-.39-.71.06-.17.25-.28.31-.44a1.14,1.14,0,0,0,0-.55,1.85,1.85,0,0,0-.09-.66c-.08-.17-.27-.26-.34-.45a.65.65,0,0,1,0-.51c.09-.14.27-.19.35-.33C27.62,13.1,27.7,13,27.71,13ZM30.2,33c0,.11-.35.3-.45.31a.73.73,0,0,1-.49-.37C29.38,32.92,30.21,32.9,30.2,33Zm-1,.93c-.09.46-1.09-.08-.82-.6S29.23,33.65,29.2,34ZM27.36,32a1.15,1.15,0,0,0-.21-.33l-.06-.08.11.11c.16.19.35.18.58.2a1.62,1.62,0,0,1-.09.38c-.08.14-.2.08-.33.12A1.78,1.78,0,0,0,27.36,32Zm-2.14-.88a.76.76,0,0,0,.38.19c.12,0,.14,0,.21.11s.19.26,0,.36a.52.52,0,0,1-.37,0,1.09,1.09,0,0,1-.22-.26C25.17,31.41,25.24,31.27,25.22,31.15Zm-.12,2.33s.07-.2,0-.2a.94.94,0,0,1,.37,0,1.23,1.23,0,0,1,.31.19.93.93,0,0,0,.4.12.48.48,0,0,1,.38.18.28.28,0,0,1,.12.21,1,1,0,0,0,.06.29c.05.16.17.43.36.46l-1.05-.05-.48,0a2.17,2.17,0,0,0-.51,0,1,1,0,0,0-.18-.92A.53.53,0,0,0,25.1,33.48ZM24.57,36a4.49,4.49,0,0,1,.11.82c0,.12,0,.47.05.56l-.14,0C24.57,37,24.6,36.5,24.57,36Zm.32,4.35h-.11c0-.42,0-.85-.07-1.27,0-.19,0-.38,0-.57,0,0,0-.38.11-.27s0,.3,0,.34.05.35.08.53c0,.41.06.83.09,1.24Zm.37,2.18a.74.74,0,0,0-.21,0c0-.24,0-.48,0-.72s0-.24,0-.35a.69.69,0,0,0,0-.25h.14c0,.24.06.48.09.73a2.3,2.3,0,0,0,.12.58Zm1.92,2.51q-.34.21-.72.39a2,2,0,0,1-.69.27c-.33,0-.26-.44-.27-.65l1,0a2.61,2.61,0,0,0,.79,0Zm3.47-.5c0,.11-.46,0-.59.06l.59-.27C30.65,44.43,30.68,44.52,30.65,44.58Zm0-2.38c-.07.06-.33,0-.42,0l-.59,0c-.79,0-1.58.06-2.36.06-.31,0-.62,0-.92,0a.35.35,0,0,1-.33-.21c-.1-.28,0-.59-.06-.87.79.05,1.58.07,2.36.09a23,23,0,0,0,2.35,0V42C30.66,42,30.69,42.15,30.63,42.2Zm.18-3.74s-.08,0-.11.07a.24.24,0,0,0,0,.17c0,.14,0,.29,0,.43,0,.33,0,.65,0,1,0,.08,0,.23,0,.29s-.23,0-.32,0l-1,.06c-.7,0-1.41,0-2.12,0l-1-.06c-.06,0-.28,0-.33,0s-.05-.27-.06-.36c0-.39-.08-.78-.13-1.17a1.62,1.62,0,0,1,0-.38c0-.07,0-.25,0-.31a10.27,10.27,0,0,1,1.24,0l1.31,0c.87,0,1.75,0,2.63,0A1.09,1.09,0,0,1,30.81,38.46Zm0-1.34c0,.07,0,.06-.1.07a10,10,0,0,1-1.34.06L28,37.3c-.44,0-.87,0-1.31,0-.2,0-.4,0-.6,0a1.89,1.89,0,0,0-.58,0c0-.35-.08-.69-.1-1,0-.16,0-.32,0-.48s0-.25,0-.33c.6,0,1.21.1,1.81.13l1.86.12.91.05.43,0a1.43,1.43,0,0,1,.36,0h.06v.37c0,.15,0,.29,0,.44A1.48,1.48,0,0,1,30.82,37.12ZM32,8.9H29c-1,0-2,0-3.05.08l-1.52.07-.77,0-.76.05c-1,.07-2,.16-3,.29a30.27,30.27,0,0,1,3-.54c1-.14,2-.24,3.05-.32.51-.05,1-.07,1.53-.1s1-.05,1.53-.07l.77,0h1.53c.26,0,.51,0,.77,0l1.53,0h.38l.39,0,.76,0,.77,0,.38,0,.38,0,1.53.12.77.06.76.08L41.19,9l.76.1.76.11,1.51.24-1.53-.09c-.51,0-1-.08-1.52-.1l-1.53-.09-.76-.05-.76,0L36.59,9l-.38,0h-.38l-.77,0-.76,0-.38,0h-.38Zm1.3,31.39c0-.18,0-.35,0-.53,0-.35,0-.71,0-1.07a.39.39,0,0,0,0-.15s-.08-.06-.1-.09a.81.81,0,0,1,0-.35c.88,0,1.76,0,2.63,0l1.31,0a10.27,10.27,0,0,1,1.24,0c-.1.08,0,.48,0,.6,0,.38-.09.77-.14,1.15a1.43,1.43,0,0,1,0,.42c-.07.09-.27.06-.37.07l-1.19.06a23.62,23.62,0,0,1-2.38,0c-.24,0-.5,0-.74,0S33.31,40.42,33.31,40.29Zm.56,4.33h-.29s-.17,0-.21,0,0-.16,0-.25l.59.27Zm.49-2.36-.62,0a1.93,1.93,0,0,1-.34,0c-.12,0-.08-.14-.08-.25v-.63a23,23,0,0,0,2.35,0c.79,0,1.57,0,2.36-.09-.13.29.08.65-.09.93s-.66.14-.9.14Zm4.11,3.2c0,.39-.35.28-.61.16A12.2,12.2,0,0,1,36.72,45a1.25,1.25,0,0,0,.47,0H38.4c.08,0,.1,0,.08.07A.61.61,0,0,1,38.47,45.46Zm.12-9.85c-.06.59-.07,1.19-.14,1.78a1.73,1.73,0,0,0-.51,0,5.42,5.42,0,0,1-.57,0c-.44,0-.88-.06-1.32-.05s-.85,0-1.27,0-.86,0-1.29,0c-.08,0-.28,0-.33-.06s0-.14,0-.17v-.35c0-.18,0-.35,0-.53s0-.2.06-.23a2.44,2.44,0,0,1,.47,0l.65,0c.45,0,.9-.05,1.34-.09s1-.06,1.43-.09,1-.11,1.48-.12A.17.17,0,0,0,38.59,35.61ZM39,41.34c0,.41,0,.83,0,1.24a1.42,1.42,0,0,0-.29,0,2.83,2.83,0,0,0,.11-.58,6.32,6.32,0,0,0,.09-.73H39A.19.19,0,0,0,39,41.34Zm.34-2.78c0,.34-.05.68-.07,1s0,.54,0,.81H39c0-.65.13-1.28.18-1.92,0-.07,0-.18,0-.2S39.32,38.5,39.31,38.56Zm.1-2.1c0,.33,0,.65,0,1l-.14,0c0-.06,0-.18,0-.25s0-.23,0-.35a5.23,5.23,0,0,1,.11-.78C39.4,36.18,39.41,36.32,39.41,36.46Zm6-2.63a4.82,4.82,0,0,1,.52.11,1.57,1.57,0,0,0-.53.11l0-.23Zm-.74,3.82c.14-.56.3-1.13.43-1.7l.18-.86c0-.05,0-.12.06-.16s.16,0,.22,0a3.11,3.11,0,0,0-.2.74c-.06.28-.13.56-.19.84a11,11,0,0,0-.39,1.7l-.25-.07A3.36,3.36,0,0,0,44.69,37.65Zm-.12,1.62c0,.14-.31.17-.41.21l0-.14,0-.17Zm-4.48-.81c.1,0,.26,0,.37,0l.45.06c.35,0,.7.08,1.05.14s.65.12,1,.19l.43.09c.1,0,.11,0,.13.12s0,.6-.2.74a1.6,1.6,0,0,1-.44.13l-.59.11c-.76.11-1.52.14-2.28.18,0-.37,0-.75.07-1.12A5.16,5.16,0,0,0,40.09,38.46Zm3.2-.62c-.55-.1-1.09-.2-1.65-.28l-.79-.11a5.53,5.53,0,0,0-.7-.07,4.9,4.9,0,0,0,.05-.77c0-.27,0-.55,0-.82,0-.12,0-.34.07-.4s.2,0,.27,0L41,35.3c.54,0,1.09,0,1.64-.06s1.1-.09,1.65-.11c-.08.3-.1.62-.16.93s-.12.65-.19,1c0,.16-.07.33-.11.49a1.21,1.21,0,0,1-.07.33C43.68,38,43.41,37.86,43.29,37.84Zm-3.45-3.7a1.56,1.56,0,0,0,.22-.78,1.18,1.18,0,0,0,.46,0c.24,0,.48,0,.72,0l1.58.12a2.41,2.41,0,0,1,.54,0c.15,0,.11.27.19.4.18.3.66.18.87,0,0,0,0,.14,0,.18s-.14.07-.21.08a6.23,6.23,0,0,1-.74.09L42,34.42c-.47,0-.94.1-1.41.13-.21,0-.21,0-.35-.13a.7.7,0,0,0-.43-.23Zm0,7.53c0-.11,0-.47.09-.54a.42.42,0,0,1,.16,0l.34,0c.46,0,.91-.09,1.36-.15s.92-.09,1.37-.18a7.1,7.1,0,0,0-.32,1.38c-.05.24-.1.48-.16.73s0,.26-.13.29a1.28,1.28,0,0,1-.19,0H42l-.76,0-1.54-.07C39.72,42.59,39.77,42.13,39.81,41.67ZM42.65,45a8.59,8.59,0,0,1-1-.08,7.87,7.87,0,0,1-1.07-.15,2.44,2.44,0,0,1-.46-.14c-.17-.06-.17-.07-.16-.25a11.29,11.29,0,0,0,1.84.23c.29,0,.59,0,.88.07l.43.06a1.72,1.72,0,0,1,.26,0A.85.85,0,0,1,42.65,45Zm1.55-4.49c-.19.82-.37,1.65-.55,2.47,0,.18-.08.35-.1.52a2,2,0,0,1-.06.35c-.09.21-.4.07-.57.06.24-.07.34-.36.39-.58s.13-.59.2-.89.2-.84.3-1.26c0-.16.06-.33.1-.49s.15-.19.32-.23Zm1.34-.38c-.18.66-.32,1.33-.47,2-.07.33-.14.65-.23,1l-.12.48a1.17,1.17,0,0,1-.08.38.12.12,0,0,1-.14.08c-.06,0-.22,0-.26,0s.07-.48.09-.59c.13-.67.31-1.33.44-2,.07-.33.14-.67.2-1,0-.13,0-.17.16-.21l.43-.1Zm.91-3.69c-.13.71-.33,1.42-.49,2.12l-.3-.14s-.27-.07-.3-.12.07-.26.08-.32l.06-.33a11,11,0,0,1,.32-1.38c.13-.46.25-.92.35-1.38,0-.19.06-.19.25-.24a2.09,2.09,0,0,0,.5-.17A18.41,18.41,0,0,0,46.45,36.48Z"/></svg>